#N canvas 637 113 713 630 10;
#X obj 133 36 tgl 15 0 empty empty empty 17 7 0 10 -262144 -1 -1 0
1;
#X text 37 1 camera on/off;
#X obj 351 26 hsl 128 15 0 127 0 0 empty empty empty -2 -8 0 10 -262144
-1 -1 1800 1;
#X obj 348 61 s noise_reduction;
#X obj 257 170 r noise_reduction;
#X obj 10 238 loadbang;
#N canvas 808 75 450 300 send_osc 0;
#X obj 96 43 inlet;
#X text 148 43 list;
#X obj 96 76 prepend send /coord;
#X obj 96 122 packOSC;
#X obj 96 209 udpsend;
#X msg 185 149 connect 127.0.0.1 57120;
#X obj 185 121 loadbang;
#X connect 0 0 2 0;
#X connect 2 0 3 0;
#X connect 3 0 4 0;
#X connect 5 0 4 0;
#X connect 6 0 5 0;
#X restore 433 559 pd send_osc;
#X text 409 117 reset [counter] on 'go';
#N canvas 232 155 566 432 recv_osc_toggle 0;
#X obj 68 33 udpreceive 57122;
#X obj 68 69 unpackOSC;
#X obj 68 106 pipelist;
#X obj 68 189 outlet;
#X obj 151 189 outlet;
#X obj 234 301 packOSC;
#X obj 234 388 udpsend;
#X msg 306 349 connect 127.0.0.1 57120;
#X obj 306 316 loadbang;
#X text 239 245 handshaking at init;
#X obj 234 189 t b;
#X msg 234 228 /handshakeReply;
#X obj 68 149 routeOSC /onOffSwitch /noiseReduction /handshake /quitPd
;
#X obj 378 189 t b;
#X msg 378 228 \; pd quit;
#X connect 0 0 1 0;
#X connect 1 0 2 0;
#X connect 1 1 2 1;
#X connect 2 0 12 0;
#X connect 5 0 6 0;
#X connect 7 0 6 0;
#X connect 8 0 7 0;
#X connect 10 0 11 0;
#X connect 11 0 5 0;
#X connect 12 0 3 0;
#X connect 12 1 4 0;
#X connect 12 2 10 0;
#X connect 12 3 13 0;
#X connect 13 0 14 0;
#X restore 161 3 pd recv_osc_toggle;
#X text 340 94 note: 125-130 ms is a lower bound for osc traffic here
;
#N canvas 68 21 486 335 camera_in 0;
#X obj -21 57 inlet;
#X text 12 11 bang;
#X obj 64 58 inlet;
#X text -41 28 also ctl msgs for camera;
#X text 105 56 1=blur \, 0=no;
#X obj 53 288 outlet;
#X obj 53 216 pix_video;
#X obj 77 173 gemhead;
#X obj -101 88 loadbang;
#X obj 53 251 pix_resize 320 240;
#X obj -8 96 route list float;
#X msg -101 128 device 0;
#X connect 0 0 10 0;
#X connect 6 0 9 0;
#X connect 7 0 6 0;
#X connect 8 0 11 0;
#X connect 9 0 5 0;
#X connect 10 0 6 0;
#X connect 10 1 7 0;
#X connect 11 0 6 0;
#X restore 127 105 pd camera_in;
#X obj 36 109 tgl 15 1 empty empty empty 17 7 0 10 -262144 -1 -1 1
1;
#X text 58 107 reverse?;
#X obj 127 206 pix_flip;
#X msg 172 180 horizontal;
#X obj 172 161 loadbang;
#X obj 127 237 pix_movement 0.1;
#X obj 22 554 pix_texture;
#X obj 22 587 rectangle 4 3;
#X obj 254 196 / 512;
#X obj 133 64 t f f;
#X obj 413 141 route 1 0;
#X obj 26 66 r to_camera;
#X obj 563 541 r to_gemwin;
#X obj 22 527 pix_composite;
#X obj 222 468 r to_camera;
#X obj 130 560 pix_image black320x240.png;
#X obj 210 501 route float;
#X msg 11 264 0 320 0 240 106 80;
#X obj 155 533 gemhead;
#X obj 393 559 print;
#N canvas 470 24 703 569 analysis 0;
#X obj 86 35 inlet;
#X text 126 35 gemlist;
#X obj 86 73 t a a a a a a a a a a;
#X text 228 73 inelegant but no choice...;
#X obj 86 376 pix_blob;
#X obj 86 440 f;
#X obj 77 407 t b;
#X obj 417 505 outlet;
#X obj 100 470 pack -1 -1 -1 10;
#X msg 25 333 4;
#X obj 25 302 loadbang;
#X obj 154 220 pixsliceblob 106 80 5;
#X obj 209 112 pixsliceblob 0 0 3;
#X obj 195 139 pixsliceblob 106 0 6;
#X obj 181 166 pixsliceblob 212 0 9;
#X obj 168 193 pixsliceblob 0 80 2;
#X obj 140 245 pixsliceblob 212 80 8;
#X obj 127 270 pixsliceblob 0 160 1;
#X obj 113 296 pixsliceblob 106 160 4;
#X obj 99 323 pixsliceblob 212 160 7;
#X obj 122 422 expr 1 - $f1;
#X connect 0 0 2 0;
#X connect 2 0 4 0;
#X connect 2 1 19 0;
#X connect 2 2 18 0;
#X connect 2 3 17 0;
#X connect 2 4 16 0;
#X connect 2 5 11 0;
#X connect 2 6 15 0;
#X connect 2 7 14 0;
#X connect 2 8 13 0;
#X connect 2 9 12 0;
#X connect 4 0 6 0;
#X connect 4 1 5 1;
#X connect 4 2 20 0;
#X connect 4 3 8 2;
#X connect 5 0 8 0;
#X connect 6 0 5 0;
#X connect 8 0 7 0;
#X connect 9 0 4 1;
#X connect 10 0 9 0;
#X connect 11 0 7 0;
#X connect 12 0 7 0;
#X connect 13 0 7 0;
#X connect 14 0 7 0;
#X connect 15 0 7 0;
#X connect 16 0 7 0;
#X connect 17 0 7 0;
#X connect 18 0 7 0;
#X connect 19 0 7 0;
#X connect 20 0 8 1;
#X restore 319 380 pd analysis;
#X obj 135 264 t a a;
#X obj 563 574 gemwin 7;
#X obj 94 163 gate 2;
#X obj 60 136 + 1;
#X msg 373 261 \; to_gemwin 1 \; to_camera 1;
#X msg 533 441 \; to_gemwin create \; to_camera driver 1 \;;
#X msg 565 231 \; to_camera 0 \; to_gemwin 0;
#X obj 506 380 gate 1;
#X msg 453 350 1;
#X obj 453 321 loadbang;
#X obj 506 411 t b b;
#X msg 471 411 0;
#X obj 413 169 t b b;
#X text 500 485 this bit should fire only once;
#X obj 373 223 delay 200;
#X connect 0 0 20 0;
#X connect 2 0 3 0;
#X connect 4 0 19 0;
#X connect 5 0 28 0;
#X connect 8 0 0 0;
#X connect 8 1 2 0;
#X connect 10 0 34 1;
#X connect 11 0 35 0;
#X connect 13 0 16 0;
#X connect 14 0 13 0;
#X connect 15 0 14 0;
#X connect 16 0 32 0;
#X connect 17 0 18 0;
#X connect 19 0 16 1;
#X connect 20 0 10 0;
#X connect 20 1 21 0;
#X connect 21 0 44 0;
#X connect 21 1 38 0;
#X connect 22 0 10 0;
#X connect 23 0 33 0;
#X connect 24 0 17 0;
#X connect 25 0 27 0;
#X connect 26 0 24 1;
#X connect 27 0 29 0;
#X connect 29 0 26 0;
#X connect 31 0 6 0;
#X connect 32 0 24 0;
#X connect 32 1 31 0;
#X connect 34 0 16 0;
#X connect 34 1 13 0;
#X connect 35 0 34 0;
#X connect 39 0 42 0;
#X connect 40 0 39 0;
#X connect 41 0 40 0;
#X connect 42 0 43 0;
#X connect 42 1 37 0;
#X connect 43 0 39 0;
#X connect 44 0 46 0;
#X connect 44 1 39 1;
#X connect 46 0 36 0;
