#N canvas 816 290 450 363 10;
#X obj 104 157 pix_crop;
#X obj 39 77 inlet;
#X obj 213 79 float \$1;
#X obj 279 78 float \$2;
#X obj 39 115 pix_separator;
#X msg 145 78 106;
#X msg 180 80 80;
#X obj 188 16 loadbang;
#X obj 104 201 pix_blob;
#X msg 347 78 4;
#X obj 388 78 float \$3;
#X obj 188 43 t b b b b b b;
#X obj 118 295 pack -1 -1 -1 -1;
#X obj 104 265 f;
#X obj 95 232 t b;
#X obj 118 330 outlet;
#X obj 142 243 expr 1 - $f1;
#X connect 0 0 8 0;
#X connect 1 0 4 0;
#X connect 2 0 0 3;
#X connect 3 0 0 4;
#X connect 4 0 0 0;
#X connect 5 0 0 1;
#X connect 6 0 0 2;
#X connect 7 0 11 0;
#X connect 8 0 14 0;
#X connect 8 1 13 1;
#X connect 8 2 16 0;
#X connect 8 3 12 2;
#X connect 9 0 8 1;
#X connect 10 0 12 3;
#X connect 11 0 5 0;
#X connect 11 1 6 0;
#X connect 11 2 2 0;
#X connect 11 3 3 0;
#X connect 11 4 9 0;
#X connect 11 5 10 0;
#X connect 12 0 15 0;
#X connect 13 0 12 0;
#X connect 14 0 13 0;
#X connect 16 0 12 1;
